<svg width="93" height="14" viewBox="0 0 93 14" fill="none" xmlns="http://www.w3.org/2000/svg">
<path d="M6.3457 2.3916L2.86523 13H0.0615234L4.81641 0.203125H6.60059L6.3457 2.3916ZM9.2373 13L5.74805 2.3916L5.4668 0.203125H7.26855L12.0498 13H9.2373ZM9.0791 8.23633V10.3018H2.32031V8.23633H9.0791ZM18.2197 10.3721C18.2197 10.1904 18.167 10.0264 18.0615 9.87988C17.9561 9.7334 17.7598 9.59863 17.4727 9.47559C17.1914 9.34668 16.7842 9.22949 16.251 9.12402C15.7705 9.01855 15.3223 8.88672 14.9062 8.72852C14.4961 8.56445 14.1387 8.36816 13.834 8.13965C13.5352 7.91113 13.3008 7.6416 13.1309 7.33105C12.9609 7.01465 12.876 6.6543 12.876 6.25C12.876 5.85156 12.9609 5.47656 13.1309 5.125C13.3066 4.77344 13.5557 4.46289 13.8779 4.19336C14.2061 3.91797 14.6045 3.7041 15.0732 3.55176C15.5479 3.39355 16.0811 3.31445 16.6729 3.31445C17.499 3.31445 18.208 3.44629 18.7998 3.70996C19.3975 3.97363 19.8545 4.33691 20.1709 4.7998C20.4932 5.25684 20.6543 5.77832 20.6543 6.36426H18.123C18.123 6.11816 18.0703 5.89844 17.9648 5.70508C17.8652 5.50586 17.707 5.35059 17.4902 5.23926C17.2793 5.12207 17.0039 5.06348 16.6641 5.06348C16.3828 5.06348 16.1396 5.11328 15.9346 5.21289C15.7295 5.30664 15.5713 5.43555 15.46 5.59961C15.3545 5.75781 15.3018 5.93359 15.3018 6.12695C15.3018 6.27344 15.3311 6.40527 15.3896 6.52246C15.4541 6.63379 15.5566 6.73633 15.6973 6.83008C15.8379 6.92383 16.0195 7.01172 16.2422 7.09375C16.4707 7.16992 16.752 7.24023 17.0859 7.30469C17.7715 7.44531 18.3838 7.62988 18.9229 7.8584C19.4619 8.08105 19.8896 8.38574 20.2061 8.77246C20.5225 9.15332 20.6807 9.6543 20.6807 10.2754C20.6807 10.6973 20.5869 11.084 20.3994 11.4355C20.2119 11.7871 19.9424 12.0947 19.5908 12.3584C19.2393 12.6162 18.8174 12.8184 18.3252 12.9648C17.8389 13.1055 17.291 13.1758 16.6816 13.1758C15.7969 13.1758 15.0469 13.0176 14.4316 12.7012C13.8223 12.3848 13.3594 11.9834 13.043 11.4971C12.7324 11.0049 12.5771 10.501 12.5771 9.98535H14.9766C14.9883 10.3311 15.0762 10.6094 15.2402 10.8203C15.4102 11.0312 15.624 11.1836 15.8818 11.2773C16.1455 11.3711 16.4297 11.418 16.7344 11.418C17.0625 11.418 17.335 11.374 17.5518 11.2861C17.7686 11.1924 17.9326 11.0693 18.0439 10.917C18.1611 10.7588 18.2197 10.5771 18.2197 10.3721ZM26.9824 3.49023V5.2832H21.4453V3.49023H26.9824ZM22.8164 1.14355H25.3477V10.1348C25.3477 10.4102 25.3828 10.6211 25.4531 10.7676C25.5293 10.9141 25.6406 11.0166 25.7871 11.0752C25.9336 11.1279 26.1182 11.1543 26.3408 11.1543C26.499 11.1543 26.6396 11.1484 26.7627 11.1367C26.8916 11.1191 27 11.1016 27.0879 11.084L27.0967 12.9473C26.8799 13.0176 26.6455 13.0732 26.3936 13.1143C26.1416 13.1553 25.8633 13.1758 25.5586 13.1758C25.002 13.1758 24.5156 13.085 24.0996 12.9033C23.6895 12.7158 23.373 12.417 23.1504 12.0068C22.9277 11.5967 22.8164 11.0576 22.8164 10.3896V1.14355ZM32.8008 13.1758C32.0625 13.1758 31.4004 13.0586 30.8145 12.8242C30.2285 12.584 29.7305 12.2529 29.3203 11.8311C28.916 11.4092 28.6055 10.9199 28.3887 10.3633C28.1719 9.80078 28.0635 9.20312 28.0635 8.57031V8.21875C28.0635 7.49805 28.166 6.83887 28.3711 6.24121C28.5762 5.64355 28.8691 5.125 29.25 4.68555C29.6367 4.24609 30.1055 3.90918 30.6562 3.6748C31.207 3.43457 31.8281 3.31445 32.5195 3.31445C33.1934 3.31445 33.791 3.42578 34.3125 3.64844C34.834 3.87109 35.2705 4.1875 35.6221 4.59766C35.9795 5.00781 36.249 5.5 36.4307 6.07422C36.6123 6.64258 36.7031 7.27539 36.7031 7.97266V9.02734H29.1445V7.33984H34.2158V7.14648C34.2158 6.79492 34.1514 6.48145 34.0225 6.20605C33.8994 5.9248 33.7119 5.70215 33.46 5.53809C33.208 5.37402 32.8857 5.29199 32.4932 5.29199C32.1592 5.29199 31.8721 5.36523 31.6318 5.51172C31.3916 5.6582 31.1953 5.86328 31.043 6.12695C30.8965 6.39062 30.7852 6.70117 30.709 7.05859C30.6387 7.41016 30.6035 7.79688 30.6035 8.21875V8.57031C30.6035 8.95117 30.6562 9.30273 30.7617 9.625C30.873 9.94727 31.0283 10.2256 31.2275 10.46C31.4326 10.6943 31.6787 10.876 31.9658 11.0049C32.2588 11.1338 32.5898 11.1982 32.959 11.1982C33.416 11.1982 33.8408 11.1104 34.2334 10.9346C34.6318 10.7529 34.9746 10.4805 35.2617 10.1172L36.4922 11.4531C36.293 11.7402 36.0205 12.0156 35.6748 12.2793C35.335 12.543 34.9248 12.7598 34.4443 12.9297C33.9639 13.0938 33.416 13.1758 32.8008 13.1758ZM40.6758 5.56445V13H38.1445V3.49023H40.5264L40.6758 5.56445ZM43.541 3.42871L43.4971 5.77539C43.374 5.75781 43.2246 5.74316 43.0488 5.73145C42.8789 5.71387 42.7236 5.70508 42.583 5.70508C42.2256 5.70508 41.915 5.75195 41.6514 5.8457C41.3936 5.93359 41.1768 6.06543 41.001 6.24121C40.8311 6.41699 40.7021 6.63086 40.6143 6.88281C40.5322 7.13477 40.4854 7.42188 40.4736 7.74414L39.9639 7.58594C39.9639 6.9707 40.0254 6.40527 40.1484 5.88965C40.2715 5.36816 40.4502 4.91406 40.6846 4.52734C40.9248 4.14062 41.2178 3.8418 41.5635 3.63086C41.9092 3.41992 42.3047 3.31445 42.75 3.31445C42.8906 3.31445 43.0342 3.32617 43.1807 3.34961C43.3271 3.36719 43.4473 3.39355 43.541 3.42871ZM59.792 0.203125V13H57.1553L52.0137 4.42188V13H49.377V0.203125H52.0137L57.1641 8.79004V0.203125H59.792ZM66.3047 13.1758C65.5664 13.1758 64.9043 13.0586 64.3184 12.8242C63.7324 12.584 63.2344 12.2529 62.8242 11.8311C62.4199 11.4092 62.1094 10.9199 61.8926 10.3633C61.6758 9.80078 61.5674 9.20312 61.5674 8.57031V8.21875C61.5674 7.49805 61.6699 6.83887 61.875 6.24121C62.0801 5.64355 62.373 5.125 62.7539 4.68555C63.1406 4.24609 63.6094 3.90918 64.1602 3.6748C64.7109 3.43457 65.332 3.31445 66.0234 3.31445C66.6973 3.31445 67.2949 3.42578 67.8164 3.64844C68.3379 3.87109 68.7744 4.1875 69.126 4.59766C69.4834 5.00781 69.7529 5.5 69.9346 6.07422C70.1162 6.64258 70.207 7.27539 70.207 7.97266V9.02734H62.6484V7.33984H67.7197V7.14648C67.7197 6.79492 67.6553 6.48145 67.5264 6.20605C67.4033 5.9248 67.2158 5.70215 66.9639 5.53809C66.7119 5.37402 66.3896 5.29199 65.9971 5.29199C65.6631 5.29199 65.376 5.36523 65.1357 5.51172C64.8955 5.6582 64.6992 5.86328 64.5469 6.12695C64.4004 6.39062 64.2891 6.70117 64.2129 7.05859C64.1426 7.41016 64.1074 7.79688 64.1074 8.21875V8.57031C64.1074 8.95117 64.1602 9.30273 64.2656 9.625C64.377 9.94727 64.5322 10.2256 64.7314 10.46C64.9365 10.6943 65.1826 10.876 65.4697 11.0049C65.7627 11.1338 66.0938 11.1982 66.4629 11.1982C66.9199 11.1982 67.3447 11.1104 67.7373 10.9346C68.1357 10.7529 68.4785 10.4805 68.7656 10.1172L69.9961 11.4531C69.7969 11.7402 69.5244 12.0156 69.1787 12.2793C68.8389 12.543 68.4287 12.7598 67.9482 12.9297C67.4678 13.0938 66.9199 13.1758 66.3047 13.1758ZM74.3643 10.5391L76.3418 3.49023H77.9502L77.4316 6.25879L75.4541 13H74.1094L74.3643 10.5391ZM73.3623 3.49023L74.7773 10.5303L74.9092 13H73.3271L70.9189 3.49023H73.3623ZM79.7607 10.416L81.1406 3.49023H83.5928L81.1846 13H79.6113L79.7607 10.416ZM78.1699 3.49023L80.1387 10.4863L80.4111 13H79.0576L77.0801 6.26758L76.5791 3.49023H78.1699ZM90.0088 10.3721C90.0088 10.1904 89.9561 10.0264 89.8506 9.87988C89.7451 9.7334 89.5488 9.59863 89.2617 9.47559C88.9805 9.34668 88.5732 9.22949 88.04 9.12402C87.5596 9.01855 87.1113 8.88672 86.6953 8.72852C86.2852 8.56445 85.9277 8.36816 85.623 8.13965C85.3242 7.91113 85.0898 7.6416 84.9199 7.33105C84.75 7.01465 84.665 6.6543 84.665 6.25C84.665 5.85156 84.75 5.47656 84.9199 5.125C85.0957 4.77344 85.3447 4.46289 85.667 4.19336C85.9951 3.91797 86.3936 3.7041 86.8623 3.55176C87.3369 3.39355 87.8701 3.31445 88.4619 3.31445C89.2881 3.31445 89.9971 3.44629 90.5889 3.70996C91.1865 3.97363 91.6436 4.33691 91.96 4.7998C92.2822 5.25684 92.4434 5.77832 92.4434 6.36426H89.9121C89.9121 6.11816 89.8594 5.89844 89.7539 5.70508C89.6543 5.50586 89.4961 5.35059 89.2793 5.23926C89.0684 5.12207 88.793 5.06348 88.4531 5.06348C88.1719 5.06348 87.9287 5.11328 87.7236 5.21289C87.5186 5.30664 87.3604 5.43555 87.249 5.59961C87.1436 5.75781 87.0908 5.93359 87.0908 6.12695C87.0908 6.27344 87.1201 6.40527 87.1787 6.52246C87.2432 6.63379 87.3457 6.73633 87.4863 6.83008C87.627 6.92383 87.8086 7.01172 88.0312 7.09375C88.2598 7.16992 88.541 7.24023 88.875 7.30469C89.5605 7.44531 90.1729 7.62988 90.7119 7.8584C91.251 8.08105 91.6787 8.38574 91.9951 8.77246C92.3115 9.15332 92.4697 9.6543 92.4697 10.2754C92.4697 10.6973 92.376 11.084 92.1885 11.4355C92.001 11.7871 91.7314 12.0947 91.3799 12.3584C91.0283 12.6162 90.6064 12.8184 90.1143 12.9648C89.6279 13.1055 89.0801 13.1758 88.4707 13.1758C87.5859 13.1758 86.8359 13.0176 86.2207 12.7012C85.6113 12.3848 85.1484 11.9834 84.832 11.4971C84.5215 11.0049 84.3662 10.501 84.3662 9.98535H86.7656C86.7773 10.3311 86.8652 10.6094 87.0293 10.8203C87.1992 11.0312 87.4131 11.1836 87.6709 11.2773C87.9346 11.3711 88.2188 11.418 88.5234 11.418C88.8516 11.418 89.124 11.374 89.3408 11.2861C89.5576 11.1924 89.7217 11.0693 89.833 10.917C89.9502 10.7588 90.0088 10.5771 90.0088 10.3721Z" fill="#0768B5"/>
</svg>
