<svg width="52" height="29" viewBox="0 0 52 29" fill="none" xmlns="http://www.w3.org/2000/svg">
<path d="M9.26855 0.288086V4.60938H6.9834V0.288086H9.26855ZM8.99023 24.209V28.1494H6.70508V24.209H8.99023ZM10.6016 19.4043C10.6016 18.8477 10.499 18.374 10.2939 17.9834C10.0986 17.5928 9.77637 17.2461 9.32715 16.9434C8.8877 16.6406 8.29199 16.3477 7.54004 16.0645C6.27051 15.5762 5.15234 15.0586 4.18555 14.5117C3.22852 13.9551 2.48145 13.2666 1.94434 12.4463C1.40723 11.6162 1.13867 10.5664 1.13867 9.29688C1.13867 8.08594 1.42676 7.03613 2.00293 6.14746C2.5791 5.25879 3.375 4.5752 4.39062 4.09668C5.41602 3.6084 6.60742 3.36426 7.96484 3.36426C9 3.36426 9.9375 3.52051 10.7773 3.83301C11.6172 4.13574 12.3398 4.58496 12.9453 5.18066C13.5508 5.7666 14.0146 6.48438 14.3369 7.33398C14.6592 8.18359 14.8203 9.15527 14.8203 10.249H10.6162C10.6162 9.66309 10.5527 9.14551 10.4258 8.69629C10.2988 8.24707 10.1133 7.87109 9.86914 7.56836C9.63477 7.26562 9.35156 7.04102 9.01953 6.89453C8.6875 6.73828 8.32129 6.66016 7.9209 6.66016C7.3252 6.66016 6.83691 6.77734 6.45605 7.01172C6.0752 7.24609 5.79688 7.56348 5.62109 7.96387C5.45508 8.35449 5.37207 8.80371 5.37207 9.31152C5.37207 9.80957 5.45996 10.2441 5.63574 10.6152C5.82129 10.9863 6.13867 11.3281 6.58789 11.6406C7.03711 11.9434 7.65234 12.2559 8.43359 12.5781C9.70312 13.0664 10.8164 13.5938 11.7734 14.1602C12.7305 14.7266 13.4775 15.4199 14.0146 16.2402C14.5518 17.0605 14.8203 18.1055 14.8203 19.375C14.8203 20.6348 14.5273 21.709 13.9414 22.5977C13.3555 23.4766 12.5352 24.1504 11.4805 24.6191C10.4258 25.0781 9.20508 25.3076 7.81836 25.3076C6.91992 25.3076 6.02637 25.1904 5.1377 24.9561C4.24902 24.7119 3.44336 24.3213 2.7207 23.7842C1.99805 23.2471 1.42188 22.5342 0.992188 21.6455C0.5625 20.7471 0.347656 19.6436 0.347656 18.335H4.56641C4.56641 19.0479 4.65918 19.6436 4.84473 20.1221C5.03027 20.5908 5.27441 20.9668 5.57715 21.25C5.88965 21.5234 6.24121 21.7188 6.63184 21.8359C7.02246 21.9531 7.41797 22.0117 7.81836 22.0117C8.44336 22.0117 8.95605 21.8994 9.35645 21.6748C9.7666 21.4502 10.0742 21.1426 10.2793 20.752C10.4941 20.3516 10.6016 19.9023 10.6016 19.4043ZM32.0615 19.1553C32.0615 20.4932 31.749 21.6211 31.124 22.5391C30.499 23.4473 29.6396 24.1357 28.5459 24.6045C27.4619 25.0635 26.2314 25.293 24.8545 25.293C23.4775 25.293 22.2422 25.0635 21.1484 24.6045C20.0547 24.1357 19.1904 23.4473 18.5557 22.5391C17.9209 21.6211 17.6035 20.4932 17.6035 19.1553C17.6035 18.2568 17.7842 17.4463 18.1455 16.7236C18.5068 15.9912 19.0098 15.3662 19.6543 14.8486C20.3086 14.3213 21.0752 13.9209 21.9541 13.6475C22.833 13.3643 23.79 13.2227 24.8252 13.2227C26.2119 13.2227 27.4521 13.4668 28.5459 13.9551C29.6396 14.4434 30.499 15.1318 31.124 16.0205C31.749 16.9092 32.0615 17.9541 32.0615 19.1553ZM27.8135 18.877C27.8135 18.2227 27.6865 17.6611 27.4326 17.1924C27.1885 16.7139 26.8418 16.3477 26.3926 16.0938C25.9434 15.8398 25.4209 15.7129 24.8252 15.7129C24.2295 15.7129 23.707 15.8398 23.2578 16.0938C22.8086 16.3477 22.457 16.7139 22.2031 17.1924C21.959 17.6611 21.8369 18.2227 21.8369 18.877C21.8369 19.5215 21.959 20.0781 22.2031 20.5469C22.457 21.0156 22.8086 21.377 23.2578 21.6309C23.7168 21.875 24.249 21.9971 24.8545 21.9971C25.46 21.9971 25.9824 21.875 26.4219 21.6309C26.8711 21.377 27.2129 21.0156 27.4473 20.5469C27.6914 20.0781 27.8135 19.5215 27.8135 18.877ZM31.6074 9.32617C31.6074 10.4102 31.3193 11.3721 30.7432 12.2119C30.167 13.042 29.3662 13.6914 28.3408 14.1602C27.3252 14.6289 26.1631 14.8633 24.8545 14.8633C23.5361 14.8633 22.3643 14.6289 21.3389 14.1602C20.3135 13.6914 19.5127 13.042 18.9365 12.2119C18.3604 11.3721 18.0723 10.4102 18.0723 9.32617C18.0723 8.03711 18.3604 6.95312 18.9365 6.07422C19.5225 5.18555 20.3232 4.51172 21.3389 4.05273C22.3643 3.59375 23.5264 3.36426 24.8252 3.36426C26.1436 3.36426 27.3105 3.59375 28.3262 4.05273C29.3516 4.51172 30.1523 5.18555 30.7285 6.07422C31.3145 6.95312 31.6074 8.03711 31.6074 9.32617ZM27.3887 9.5166C27.3887 8.94043 27.2861 8.44238 27.0811 8.02246C26.876 7.59277 26.583 7.26074 26.2021 7.02637C25.8311 6.79199 25.3721 6.6748 24.8252 6.6748C24.2979 6.6748 23.8438 6.78711 23.4629 7.01172C23.0918 7.23633 22.8037 7.56348 22.5986 7.99316C22.4033 8.41309 22.3057 8.9209 22.3057 9.5166C22.3057 10.0928 22.4033 10.6006 22.5986 11.04C22.8037 11.4697 23.0967 11.8066 23.4775 12.0508C23.8584 12.2949 24.3174 12.417 24.8545 12.417C25.3916 12.417 25.8457 12.2949 26.2168 12.0508C26.5977 11.8066 26.8857 11.4697 27.0811 11.04C27.2861 10.6006 27.3887 10.0928 27.3887 9.5166ZM39.2026 14.3359L34.7568 25.9155H33.5923L38.0454 14.3359H39.2026ZM42.0298 18.6499V25H40.6675V17.0752H41.9565L42.0298 18.6499ZM41.7515 20.7373L41.1216 20.7153C41.1265 20.1733 41.1973 19.6729 41.334 19.2139C41.4707 18.75 41.6733 18.3472 41.9419 18.0054C42.2104 17.6636 42.5449 17.3999 42.9453 17.2144C43.3457 17.0239 43.8096 16.9287 44.3369 16.9287C44.708 16.9287 45.0498 16.9824 45.3623 17.0898C45.6748 17.1924 45.9458 17.356 46.1753 17.5806C46.4048 17.8052 46.583 18.0933 46.71 18.4448C46.8369 18.7964 46.9004 19.2212 46.9004 19.7192V25H45.5454V19.7852C45.5454 19.3701 45.4746 19.0381 45.333 18.7891C45.1963 18.54 45.001 18.3594 44.7471 18.2471C44.4932 18.1299 44.1953 18.0713 43.8535 18.0713C43.4531 18.0713 43.1187 18.1421 42.8501 18.2837C42.5815 18.4253 42.3667 18.6206 42.2056 18.8696C42.0444 19.1187 41.9272 19.4043 41.854 19.7266C41.7856 20.0439 41.7515 20.3809 41.7515 20.7373ZM46.8857 19.9902L45.9775 20.2686C45.9824 19.834 46.0532 19.4165 46.1899 19.0161C46.3315 18.6157 46.5342 18.2593 46.7979 17.9468C47.0664 17.6343 47.396 17.3877 47.7866 17.207C48.1772 17.0215 48.624 16.9287 49.127 16.9287C49.5518 16.9287 49.9277 16.9849 50.2549 17.0972C50.5869 17.2095 50.8652 17.3828 51.0898 17.6172C51.3193 17.8467 51.4927 18.1421 51.6099 18.5034C51.7271 18.8647 51.7856 19.2944 51.7856 19.7925V25H50.4233V19.7778C50.4233 19.3335 50.3525 18.9893 50.2109 18.7451C50.0742 18.4961 49.8789 18.3228 49.625 18.2251C49.376 18.1226 49.0781 18.0713 48.7314 18.0713C48.4336 18.0713 48.1699 18.1226 47.9404 18.2251C47.7109 18.3276 47.5181 18.4692 47.3618 18.6499C47.2056 18.8257 47.0859 19.0283 47.0029 19.2578C46.9248 19.4873 46.8857 19.7314 46.8857 19.9902Z" fill="white"/>
</svg>
